<svg width="3200" height="2400" viewBox="0 0 3200 2400" fill="none" xmlns="http://www.w3.org/2000/svg">
<g clip-path="url(#clip0_6_38)">
<g filter="url(#filter0_f_6_38)">
<path d="M1495.87 1225.05C1368.68 1489.12 1050.51 1599.6 786.443 1472.41V1472.41C522.376 1345.22 410.419 1027.56 537.608 763.496V763.496C664.798 499.429 982.97 388.948 1247.04 516.137V516.137C1511.1 643.327 1623.06 960.983 1495.87 1225.05V1225.05Z" fill="url(#paint0_radial_6_38)"/>
</g>
<g style="mix-blend-mode:overlay" filter="url(#filter1_f_6_38)">
<path d="M884.077 2637.47C459.522 2669.25 89.4638 2349.25 57.6764 1924.7C25.8889 1500.14 344.17 1128.6 768.724 1096.81C1193.28 1065.03 1563.34 1385.03 1595.12 1809.58C1626.91 2234.14 1308.63 2605.68 884.077 2637.47Z" fill="url(#paint1_radial_6_38)"/>
</g>
<g filter="url(#filter2_f_6_38)">
<path d="M1242.64 187.778C1789.82 -100.945 2467.46 108.58 2756.18 655.765L2836.66 808.284C3125.38 1355.47 2915.86 2033.11 2368.67 2321.83L2220.59 2399.96C1673.41 2688.69 995.769 2479.16 707.046 1931.98L626.57 1779.46C337.847 1232.27 547.372 554.636 1094.56 265.914L1242.64 187.778Z" fill="url(#paint2_radial_6_38)"/>
</g>
<g style="mix-blend-mode:hue" filter="url(#filter3_f_6_38)">
<path d="M1165.78 2323.13C749.355 2047.48 636.271 1484.88 911.918 1068.45V1068.45C1187.57 652.025 1749.64 536.33 2166.07 811.978V811.978C2582.49 1087.62 2695.58 1650.23 2419.93 2066.66V2066.66C2144.28 2483.08 1582.21 2598.78 1165.78 2323.13V2323.13Z" fill="url(#paint3_radial_6_38)"/>
</g>
<g style="mix-blend-mode:lighten" filter="url(#filter4_f_6_38)">
<rect x="772.385" y="-44.7402" width="2087.64" height="2085.21" rx="1042.61" transform="rotate(35.0235 772.385 -44.7402)" fill="url(#paint4_radial_6_38)"/>
</g>
<g style="mix-blend-mode:lighten" filter="url(#filter5_f_6_38)">
<rect x="444.882" y="508.26" width="1678.71" height="1676.76" rx="838.378" transform="rotate(-2.57313 444.882 508.26)" fill="url(#paint5_radial_6_38)"/>
</g>
<g style="mix-blend-mode:overlay" filter="url(#filter6_f_6_38)">
<path d="M1929.95 202.944C2251.39 42.6953 2642.48 174.577 2802.73 496.015V496.015C2962.98 817.453 2832.92 1209.15 2511.48 1369.4V1369.4C2190.04 1529.65 1798.95 1397.77 1638.7 1076.33V1076.33C1478.45 754.891 1608.52 363.194 1929.95 202.944V202.944Z" fill="url(#paint6_radial_6_38)"/>
</g>
<g style="mix-blend-mode:lighten" filter="url(#filter7_f_6_38)">
<path d="M2057.87 248.306C2334.62 406.684 2429.99 760.474 2271.61 1037.23V1037.23C2113.23 1313.98 1759.89 1410.99 1483.13 1252.61V1252.61C1206.38 1094.24 1111.01 740.447 1269.39 463.692V463.692C1427.77 186.936 1781.11 89.9281 2057.87 248.306V248.306Z" fill="url(#paint7_radial_6_38)"/>
</g>
<path d="M1437.38 908.091C1442.82 928.376 1457.23 941.596 1480.62 947.752C1504.97 953.649 1541.18 957.406 1589.24 959.023C1647.02 962.175 1695.02 967.432 1733.22 974.794C1772.4 981.897 1809.2 999.471 1843.63 1027.51C1879.03 1055.3 1904.23 1097.2 1919.25 1153.23C1967.39 1332.89 1874.58 1454.04 1640.82 1516.67C1602.19 1527.03 1553.95 1536.33 1496.12 1544.58C1439.25 1552.57 1386.69 1557.33 1338.44 1558.87C1334.94 1538.07 1330.91 1507.57 1326.35 1467.38C1322.5 1425.97 1320.89 1394.83 1321.51 1373.96C1356.61 1369.73 1408.87 1361.93 1478.3 1350.58C1548.69 1338.96 1601.27 1328.5 1636.05 1319.18C1656.33 1313.74 1668.02 1309.06 1671.1 1305.13C1675.86 1299.71 1678.53 1292.27 1679.1 1282.8C1680.37 1272.1 1680.11 1263.38 1678.29 1256.61C1673.12 1237.3 1660.06 1225.27 1639.12 1220.52C1617.92 1214.82 1583.16 1210.67 1534.85 1208.09C1477.32 1205.9 1428.84 1200.77 1389.41 1192.71C1349.98 1184.64 1312.3 1165.74 1276.39 1136.03C1240.47 1106.31 1214.49 1061.51 1198.45 1001.62C1187.06 959.118 1185.59 914.995 1194.04 869.25C1202.22 822.539 1214.52 789.221 1230.92 769.297C1243.53 754.531 1272.69 735.848 1318.4 713.247C1364.1 690.647 1408.21 673.653 1450.71 662.265C1558.89 633.277 1649.99 619.738 1724.01 621.646C1728.22 641.223 1731.96 668.692 1735.22 704.052C1739.45 739.154 1742.42 771.487 1744.13 801.052L1710.42 808.532C1582.52 833.485 1501.18 850.621 1466.41 859.938C1451.92 863.82 1443.84 866.503 1442.16 867.987C1438.82 870.954 1436.6 876.207 1435.52 883.744C1434.43 891.282 1435.05 899.398 1437.38 908.091Z" fill="#6466E9"/>
</g>
<defs>
<filter id="filter0_f_6_38" x="-714.397" y="-736.152" width="3462.27" height="3460.85" filterUnits="userSpaceOnUse" color-interpolation-filters="sRGB">
<feFlood flood-opacity="0" result="BackgroundImageFix"/>
<feBlend mode="normal" in="SourceGraphic" in2="BackgroundImageFix" result="shape"/>
<feGaussianBlur stdDeviation="599.751" result="effect1_foregroundBlur_6_38"/>
</filter>
<filter id="filter1_f_6_38" x="-504.627" y="534.521" width="2662.06" height="2665.24" filterUnits="userSpaceOnUse" color-interpolation-filters="sRGB">
<feFlood flood-opacity="0" result="BackgroundImageFix"/>
<feBlend mode="normal" in="SourceGraphic" in2="BackgroundImageFix" result="shape"/>
<feGaussianBlur stdDeviation="280.057" result="effect1_foregroundBlur_6_38"/>
</filter>
<filter id="filter2_f_6_38" x="-75.3796" y="-514.171" width="3613.99" height="3616.08" filterUnits="userSpaceOnUse" color-interpolation-filters="sRGB">
<feFlood flood-opacity="0" result="BackgroundImageFix"/>
<feBlend mode="normal" in="SourceGraphic" in2="BackgroundImageFix" result="shape"/>
<feGaussianBlur stdDeviation="286.13" result="effect1_foregroundBlur_6_38"/>
</filter>
<filter id="filter3_f_6_38" x="206.564" y="107.427" width="2918.72" height="2920.26" filterUnits="userSpaceOnUse" color-interpolation-filters="sRGB">
<feFlood flood-opacity="0" result="BackgroundImageFix"/>
<feBlend mode="normal" in="SourceGraphic" in2="BackgroundImageFix" result="shape"/>
<feGaussianBlur stdDeviation="277.356" result="effect1_foregroundBlur_6_38"/>
</filter>
<filter id="filter4_f_6_38" x="-556.448" y="-176.709" width="3170.54" height="3169.68" filterUnits="userSpaceOnUse" color-interpolation-filters="sRGB">
<feFlood flood-opacity="0" result="BackgroundImageFix"/>
<feBlend mode="normal" in="SourceGraphic" in2="BackgroundImageFix" result="shape"/>
<feGaussianBlur stdDeviation="270.956" result="effect1_foregroundBlur_6_38"/>
</filter>
<filter id="filter5_f_6_38" x="-60.2496" y="-72.1945" width="2762.56" height="2760.61" filterUnits="userSpaceOnUse" color-interpolation-filters="sRGB">
<feFlood flood-opacity="0" result="BackgroundImageFix"/>
<feBlend mode="normal" in="SourceGraphic" in2="BackgroundImageFix" result="shape"/>
<feGaussianBlur stdDeviation="270.956" result="effect1_foregroundBlur_6_38"/>
</filter>
<filter id="filter6_f_6_38" x="1097.59" y="-337.799" width="2246.25" height="2247.94" filterUnits="userSpaceOnUse" color-interpolation-filters="sRGB">
<feFlood flood-opacity="0" result="BackgroundImageFix"/>
<feBlend mode="normal" in="SourceGraphic" in2="BackgroundImageFix" result="shape"/>
<feGaussianBlur stdDeviation="236.264" result="effect1_foregroundBlur_6_38"/>
</filter>
<filter id="filter7_f_6_38" x="645.869" y="-374.803" width="2249.26" height="2250.53" filterUnits="userSpaceOnUse" color-interpolation-filters="sRGB">
<feFlood flood-opacity="0" result="BackgroundImageFix"/>
<feBlend mode="normal" in="SourceGraphic" in2="BackgroundImageFix" result="shape"/>
<feGaussianBlur stdDeviation="273.51" result="effect1_foregroundBlur_6_38"/>
</filter>
<radialGradient id="paint0_radial_6_38" cx="0" cy="0" r="1" gradientUnits="userSpaceOnUse" gradientTransform="translate(1223.45 1105.02) rotate(-64.8812) scale(2310.58 2315.39)">
<stop stop-color="#5AE9FD"/>
<stop offset="1" stop-color="#5AE9FD" stop-opacity="0"/>
</radialGradient>
<radialGradient id="paint1_radial_6_38" cx="0" cy="0" r="1" gradientUnits="userSpaceOnUse" gradientTransform="translate(957.041 2164.37) rotate(-29.0752) scale(730.088 731.609)">
<stop stop-color="#1B07FF"/>
<stop offset="1" stop-color="#FF9898"/>
</radialGradient>
<radialGradient id="paint2_radial_6_38" cx="0" cy="0" r="1" gradientUnits="userSpaceOnUse" gradientTransform="translate(1966.27 929.89) rotate(144.531) scale(1595.55 1598.87)">
<stop stop-color="#4BD4FF"/>
<stop offset="1" stop-color="#D04BFF" stop-opacity="0"/>
</radialGradient>
<radialGradient id="paint3_radial_6_38" cx="0" cy="0" r="1" gradientUnits="userSpaceOnUse" gradientTransform="translate(1573.42 1936.99) rotate(8.70865) scale(856.385 858.169)">
<stop stop-color="#C7BEFF"/>
<stop offset="1" stop-color="#9BFFAB"/>
</radialGradient>
<radialGradient id="paint4_radial_6_38" cx="0" cy="0" r="1" gradientUnits="userSpaceOnUse" gradientTransform="translate(2233.24 530.638) rotate(83.176) scale(980.012 1149.06)">
<stop offset="0.447917" stop-color="#FF4D4D"/>
<stop offset="1" stop-color="#FF0000" stop-opacity="0"/>
</radialGradient>
<radialGradient id="paint5_radial_6_38" cx="0" cy="0" r="1" gradientUnits="userSpaceOnUse" gradientTransform="translate(1619.58 970.932) rotate(75.3715) scale(627.638 517.895)">
<stop stop-color="#64FFFF"/>
<stop offset="0.572917" stop-color="#00FFC2" stop-opacity="0.58"/>
<stop offset="1" stop-color="#00FFC2" stop-opacity="0"/>
</radialGradient>
<radialGradient id="paint6_radial_6_38" cx="0" cy="0" r="1" gradientUnits="userSpaceOnUse" gradientTransform="translate(2023.88 595.702) rotate(128.709) scale(615.923 617.206)">
<stop offset="0.197917" stop-color="#FFD337"/>
<stop offset="1" stop-color="#FFFAE1" stop-opacity="0.42"/>
</radialGradient>
<radialGradient id="paint7_radial_6_38" cx="0" cy="0" r="1" gradientUnits="userSpaceOnUse" gradientTransform="translate(1770.5 750.46) rotate(-150.219) scale(577.362 578.565)">
<stop stop-color="#7E5EFF"/>
<stop offset="1" stop-color="#CD03FF" stop-opacity="0.6"/>
</radialGradient>
<clipPath id="clip0_6_38">
<rect width="3200" height="2400" fill="white"/>
</clipPath>
</defs>
</svg>
