<svg width="534" height="90" viewBox="0 0 534 90" fill="none" xmlns="http://www.w3.org/2000/svg">
<path d="M25.816 28.096C25.816 30.112 26.824 31.696 28.84 32.848C30.952 34 34.216 35.248 38.632 36.592C43.912 38.32 48.232 40 51.592 41.632C55.048 43.264 58.024 45.808 60.52 49.264C63.112 52.72 64.408 57.232 64.408 62.8C64.408 80.656 52.792 89.584 29.56 89.584C25.72 89.584 21.016 89.248 15.448 88.576C9.976 87.904 4.984 87.04 0.472 85.984C0.664 83.968 1.048 81.04 1.624 77.2C2.296 73.264 2.92 70.336 3.496 68.416C6.856 68.896 11.896 69.472 18.616 70.144C25.432 70.816 30.568 71.152 34.024 71.152C36.04 71.152 37.24 71.008 37.624 70.72C38.2 70.336 38.632 69.712 38.92 68.848C39.304 67.888 39.496 67.072 39.496 66.4C39.496 64.48 38.584 63.04 36.76 62.08C34.936 61.024 31.816 59.776 27.4 58.336C22.12 56.704 17.752 55.024 14.296 53.296C10.84 51.568 7.816 48.88 5.224 45.232C2.632 41.584 1.336 36.784 1.336 30.832C1.336 26.608 2.296 22.48 4.216 18.448C6.136 14.32 8.104 11.536 10.12 10.096C11.656 9.04 14.824 8.03199 19.624 7.07199C24.424 6.112 28.936 5.632 33.16 5.632C43.912 5.632 52.696 6.64 59.512 8.656C59.416 10.576 59.08 13.216 58.504 16.576C58.024 19.936 57.496 23.008 56.92 25.792L53.608 25.648C41.128 24.784 33.16 24.352 29.704 24.352C28.264 24.352 27.448 24.4 27.256 24.496C26.872 24.688 26.536 25.12 26.248 25.792C25.96 26.464 25.816 27.232 25.816 28.096ZM101.182 60.784C101.182 62.512 101.23 64.336 101.326 66.256C101.422 68.08 101.71 69.232 102.19 69.712C102.862 70.384 105.214 70.72 109.246 70.72L114.142 70.576C115.006 75.184 115.438 80.512 115.438 86.56C113.614 87.232 110.926 87.856 107.374 88.432C103.918 89.008 100.606 89.296 97.438 89.296C90.814 89.296 85.678 87.856 82.03 84.976C78.478 82 76.702 77.44 76.702 71.296V35.872H65.902V22.768L76.702 21.76L83.182 5.91999L101.182 4.912V21.76H116.446V35.872H101.182V60.784ZM163.986 70.72C166.386 70.72 170.85 70.48 177.378 70C178.242 70 179.826 69.904 182.13 69.712L184.29 84.544C176.898 88 167.298 89.728 155.49 89.728C144.45 89.728 135.954 86.944 130.002 81.376C124.146 75.808 121.218 67.408 121.218 56.176C121.218 50.416 121.938 44.848 123.378 39.472C124.914 34.096 126.642 30.352 128.562 28.24C130.578 26.128 134.322 24.304 139.794 22.768C145.266 21.232 150.69 20.464 156.066 20.464C164.706 20.464 171.186 22 175.506 25.072C179.826 28.144 182.658 32.416 184.002 37.888C185.346 43.264 186.018 50.512 186.018 59.632C179.49 60.016 173.106 60.208 166.866 60.208H146.418C146.418 63.28 147.042 65.584 148.29 67.12C149.634 68.656 151.506 69.664 153.906 70.144C156.306 70.528 159.666 70.72 163.986 70.72ZM147.858 37.6C147.282 37.888 146.85 39.136 146.562 41.344C146.274 43.552 146.082 46.048 145.986 48.832H153.474C157.986 48.832 161.25 48.784 163.266 48.688C163.266 44.08 162.594 40.816 161.25 38.896C160.002 36.976 157.794 36.016 154.626 36.016C152.034 36.016 149.778 36.544 147.858 37.6ZM195.117 1.6L219.741 0.591992V88H195.117V1.6ZM232.383 1.6L257.007 0.591992V88H232.383V1.6ZM308.673 88L306.369 78.928C301.953 86.128 295.809 89.728 287.937 89.728C281.505 89.728 276.225 87.952 272.097 84.4C268.065 80.752 266.049 75.664 266.049 69.136C266.049 65.104 267.201 61.6 269.505 58.624C271.905 55.552 275.169 53.392 279.297 52.144C284.673 50.608 292.977 49.744 304.209 49.552C304.209 43.216 303.921 39.856 303.345 39.472C302.865 39.088 301.329 38.896 298.737 38.896C297.105 38.896 294.849 38.992 291.969 39.184C287.361 39.376 281.121 39.904 273.249 40.768C272.481 35.584 271.905 30.016 271.521 24.064C276.609 23.008 281.937 22.144 287.505 21.472C293.073 20.704 298.065 20.32 302.481 20.32C310.161 20.32 315.921 21.616 319.761 24.208C323.601 26.704 326.097 30.016 327.249 34.144C328.401 38.272 328.929 43.504 328.833 49.84L328.689 71.008L329.121 88H308.673ZM296.289 73.6C298.785 73.6 301.425 73.12 304.209 72.16V61.504H303.057C295.953 61.504 292.017 61.888 291.249 62.656C290.769 63.136 290.385 63.856 290.097 64.816C289.905 65.776 289.809 66.688 289.809 67.552C289.809 69.856 290.337 71.44 291.393 72.304C292.449 73.168 294.081 73.6 296.289 73.6ZM380.991 20.32C382.239 20.32 383.535 20.464 384.879 20.752C386.319 21.04 387.375 21.376 388.047 21.76C388.047 23.872 387.807 27.376 387.327 32.272C386.847 37.072 386.415 40.48 386.031 42.496C385.071 42.4 383.295 42.352 380.703 42.352C374.655 42.352 369.279 42.688 364.575 43.36V88H339.951V21.76H360.543L363.423 32.416H363.567C366.351 28.768 369.327 25.84 372.495 23.632C375.663 21.424 378.495 20.32 380.991 20.32Z" fill="white"/>
<path d="M494.218 5.91999V51.856C494.218 61.36 493.162 68.8 491.05 74.176C489.034 79.456 485.194 83.344 479.53 85.84C473.866 88.336 465.61 89.584 454.762 89.584C446.794 89.584 440.074 88.768 434.602 87.136C429.13 85.408 424.762 82.192 421.498 77.488C418.33 72.784 416.746 66.16 416.746 57.616V5.91999H442.666V52.144C442.666 57.232 442.906 61.12 443.386 63.808C443.962 66.4 445.21 68.416 447.13 69.856C449.05 71.2 451.978 71.872 455.914 71.872C458.314 71.872 460.57 71.632 462.682 71.152C464.794 70.672 466.234 69.952 467.002 68.992C467.866 67.84 468.298 63.664 468.298 56.464V5.91999H494.218ZM508.032 5.91999H533.952V88H508.032V5.91999Z" fill="#6466E9"/>
</svg>
